<svg fill="#ffffff" viewBox="0 0 256 256" xmlns="http://www.w3.org/2000/svg" preserveAspectRatio="xMidYMid"><g id="SVGRepo_bgCarrier" stroke-width="0"></g><g id="SVGRepo_tracerCarrier" stroke-linecap="round" stroke-linejoin="round"></g><g id="SVGRepo_iconCarrier"><path d="M72.392 153.356c0 3.303 0.403 5.98 1.074 8.032 0.738 2.051 1.611 4.37 2.821 6.824 0.604 1.074 0.805 2.118 0.805 3.124 0 1.41-0.94 2.82-2.82 4.226l-9.375 6.285c-1.342 0.872-2.685 1.343-3.894 1.343-1.544 0-3.087-0.739-4.63-2.15-1.208-1.276-2.215-2.618-3.088-4.024-0.872-1.477-1.745-3.156-2.82-5.207-7.054 8.368-15.928 12.527-26.623 12.527-7.591 0-13.609-2.15-18.172-6.554C2.082 173.426 0 167.543 0 160.113c0-8.033 2.82-14.52 8.569-19.529 5.748-4.966 13.408-7.456 23.028-7.456 3.222 0 6.555.268 10.022.738 3.49.47 7.085 1.208 10.893 2.015v-6.69c0-6.958-1.477-11.788-4.294-14.653-2.954-2.82-7.92-4.227-15.05-4.227-3.29 0-6.69.403-10.157 1.142-3.491.738-6.892 1.61-10.29 2.618-1.543.671-2.685 1.142-3.357 1.343a5.842 5.842 0 0 1-1.477.268c-1.275 0-1.946-0.939-1.946-2.82v-4.428c0-1.477.201-2.552.671-3.29.47-.738 1.276-1.476 2.618-2.149 3.29-1.678 7.256-3.088 11.833-4.227 4.63-1.208 9.577-1.745 14.92-1.745 11.386 0 19.715 2.551 25.061 7.725 5.28 5.174 7.859 13.005 7.859 23.565v31.033l-.067.134Zm-36.645 13.677c3.088 0 6.31-.537 9.733-1.61 3.424-1.075 6.445-3.09 8.972-6.11 1.544-1.947 2.686-4.093 3.29-6.48.604-2.35.939-5.172.939-8.46v-4.093c-2.82-.603-5.816-1.074-8.838-1.477-3.021-.402-6.042-.604-8.972-.604-6.378 0-11.075 1.209-14.25 3.693-3.156 2.485-4.697 5.95-4.697 10.58 0 4.294 1.142 7.591 3.356 9.778 2.149 2.216 5.442 3.29 9.867 3.29l1.6-.107Zm72.84 9.778c-1.612 0-2.686-.269-3.424-0.872-.738-.537-1.41-1.879-1.947-3.826L85.729 108.26c-.537-1.88-.805-3.156-.805-3.76 0-1.544.738-2.417 2.282-2.417h9.308c1.678 0 2.82.268 3.49.872.739.537 1.343 1.879 1.88 3.826l16.4 64.908 15.26-64.908c.47-1.88 1.074-3.29 1.745-3.826.672-.537 1.88-.872 3.49-.872h7.591c1.678 0 2.82.268 3.491.872.672.604 1.343 1.88 1.745 3.826l15.46 65.715L183.93 106.78c.537-1.88 1.208-3.29 1.88-3.826.671-.537 1.811-.872 3.423-.872h8.838c1.544 0 2.35.738 2.35 2.417 0 .47-.068.939-.202 1.477-.134.537-.402 1.343-.806 2.417l-18.976 63.834c-.537 1.88-1.208 3.223-1.946 3.826-.738.604-1.88.872-3.424.872h-8.167c-1.678 0-2.82-.268-3.492-.872-.671-.604-1.342-1.946-1.745-3.826l-15.191-63.297-15.124 63.229c-.47 1.88-1.074 3.289-1.745 3.826-.672.537-1.88.872-3.491.872h-8.167v-.067Zm116.106 2.417c-4.697 0-9.375-.537-13.878-1.61-4.562-1.074-8.1-2.283-10.491-3.625-1.41-.805-2.35-1.678-2.753-2.484-.402-.805-.604-1.678-.604-2.618v-4.562c0-1.88.738-2.82 2.148-2.82.537 0 1.075.067 1.612.202.538.134 1.343.47 2.216.805a49.763 49.763 0 0 0 10.088 3.29c3.49.738 7.055 1.141 10.759 1.141 5.682 0 10.088-1.007 13.073-2.887 3.021-1.88 4.495-4.63 4.495-8.301 0-2.417-.806-4.495-2.35-6.176-1.544-1.745-4.428-3.29-8.57-4.696l-12.326-3.826c-6.243-1.946-10.826-4.83-13.609-8.57-2.82-3.693-4.159-7.79-4.159-12.19 0-3.558.739-6.69 2.216-9.442 1.477-2.753 3.49-5.173 5.95-7.19a27.137 27.137 0 0 1 8.7-4.495c3.29-.939 6.824-1.477 10.625-1.477 2.014 0 4.092.134 6.108.403 2.082.268 4.025.604 5.884 1.074 1.812.47 3.49 1.007 5.106 1.611 1.61.604 2.82 1.208 3.625 1.812 1.142.67 1.946 1.41 2.484 2.081.537.672.805 1.544.805 2.62v4.227c0 1.88-.739 2.887-2.149 2.887-.672 0-1.745-.335-3.155-1.007-4.764-2.148-10.111-3.222-15.997-3.222-5.173 0-9.24.872-11.923 2.686-2.686 1.812-4.093 4.495-4.093 8.167 0 2.417.872 4.495 2.551 6.31 1.678 1.812 4.764 3.625 9.106 5.173l12.057 3.826c6.176 1.946 10.625 4.696 13.274 8.168 2.618 3.49 3.961 7.457 3.961 11.788 0 3.625-.738 6.959-2.216 9.845-1.477 2.887-3.558 5.441-6.176 7.524a27.959 27.959 0 0 1-9.24 4.898c-3.693 1.208-7.658 1.745-11.788 1.745l-.738-.134Z"></path></g></svg>
