<svg xmlns="http://www.w3.org/2000/svg" viewBox="0 0 256 256" fill="none">
  <path fill="#6C47FF" d="M127.997 0C98.7 0 72.888 14.525 57.22 36.31L81.851 84.035c8.433-11.654 22.2-19.282 37.748-19.282 25.62 0 46.426 20.806 46.426 46.426 0 15.548-7.628 29.315-19.282 37.748l47.725 24.631C212.472 157.88 227 132.065 227 102.768c0-54.882-44.445-99.327-99.326-99.327L127.997 0Z"/>
  <path fill="#6C47FF" d="M127.997 227c29.297 0 55.109-14.525 70.777-36.31l-24.631-47.725c-8.433 11.654-22.2 19.282-37.748 19.282-25.62 0-46.426-20.806-46.426-46.426 0-15.548 7.628-29.315 19.282-37.748L61.526 53.442C43.528 69.11 29 94.925 29 124.222 29 179.104 73.445 223.55 128.326 223.55L127.997 227Z"/>
</svg>
